<?xml version="1.0" standalone="no"?>
<!DOCTYPE svg PUBLIC "-//W3C//DTD SVG 20010904//EN"
 "http://www.w3.org/TR/2001/REC-SVG-20010904/DTD/svg10.dtd">
<svg version="1.0" xmlns="http://www.w3.org/2000/svg"
 width="180.000000pt" height="180.000000pt" viewBox="0 0 180.000000 180.000000"
 preserveAspectRatio="xMidYMid meet">

<g transform="translate(0.000000,180.000000) scale(0.100000,-0.100000)"
fill="#000000" stroke="none">
<path d="M0 1075 l0 -725 900 0 900 0 0 725 0 725 -900 0 -900 0 0 -725z m917
369 l-2 -255 -25 -19 -25 -19 -3 92 c-2 79 -6 95 -27 123 -23 30 -25 41 -25
147 l0 114 45 42 c25 23 50 39 55 36 6 -4 9 -107 7 -261z m81 223 l42 -43 0
-122 c0 -115 -2 -126 -25 -160 -21 -31 -25 -48 -25 -116 l0 -79 -25 23 -25 23
0 259 c0 142 4 258 8 258 4 0 27 -19 50 -43z m-208 -387 l0 -201 -47 -44 c-27
-25 -51 -45 -55 -45 -5 0 -8 92 -8 204 l0 203 45 42 c24 22 49 41 55 41 6 0
10 -71 10 -200z m338 157 l42 -43 0 -202 c0 -111 -4 -202 -8 -202 -4 0 -27 19
-50 43 l-42 43 0 202 c0 111 4 202 8 202 4 0 27 -19 50 -43z m-468 -190 c0 -7
-18 -31 -40 -52 l-40 -39 0 -143 c0 -79 3 -143 8 -143 4 0 80 68 170 151 89
83 166 149 172 147 5 -2 80 -68 166 -148 86 -80 161 -146 165 -148 5 -2 9 61
9 140 l0 144 -40 39 c-39 38 -51 65 -30 65 6 0 31 -19 55 -41 l45 -42 0 -198
0 -199 -60 0 -60 0 0 59 0 59 -121 113 c-67 63 -125 114 -129 114 -9 0 -34
-22 -162 -138 l-87 -80 -3 -61 -3 -61 -60 0 -60 0 -3 195 -3 195 48 42 c51 45
63 51 63 30z m256 -297 c2 -40 -6 -50 -42 -50 -33 0 -34 1 -34 41 l0 40 38 -3
c32 -3 37 -7 38 -28z m104 -10 l0 -40 -40 0 -40 0 0 40 0 40 40 0 40 0 0 -40z
m-109 -70 c1 -5 1 -19 1 -30 0 -38 -2 -40 -37 -40 -34 0 -35 1 -35 40 0 39 1
40 35 40 19 0 36 -4 36 -10z m109 -30 l0 -40 -40 0 -40 0 0 40 0 40 40 0 40 0
0 -40z m-432 -222 c2 -20 -1 -28 -12 -28 -8 0 -18 5 -21 10 -11 18 -26 10 -23
-12 2 -14 12 -24 28 -28 23 -5 25 -10 25 -65 l0 -60 -37 -3 c-29 -2 -39 1 -48
18 -6 11 -8 25 -5 30 10 16 32 12 39 -7 9 -24 29 -1 24 28 -2 14 -11 25 -23
27 -32 6 -45 22 -45 54 0 51 16 70 58 66 32 -3 37 -7 40 -30z m122 -78 c0 -91
-3 -110 -15 -110 -12 0 -15 19 -15 110 0 91 3 110 15 110 12 0 15 -19 15 -110z
m168 98 c16 -16 15 -93 0 -106 -7 -5 -22 -11 -33 -14 -16 -2 -21 -12 -23 -46
-2 -28 -8 -42 -18 -42 -11 0 -14 21 -14 110 l0 110 38 0 c21 0 43 -5 50 -12z
m180 0 c8 -8 12 -47 12 -111 0 -88 -2 -98 -17 -95 -13 2 -19 14 -21 41 -4 49
-26 44 -30 -6 -2 -24 -8 -37 -18 -37 -11 0 -14 19 -14 98 0 106 7 122 50 122
14 0 31 -5 38 -12z m177 -98 l0 -105 -42 -3 -43 -3 0 111 0 111 43 -3 42 -3 0
-105z m125 0 c0 -91 -3 -110 -15 -110 -12 0 -15 19 -15 110 0 91 3 110 15 110
12 0 15 -19 15 -110z"/>
<path d="M824 595 c-3 -8 -3 -19 1 -25 11 -18 25 -11 25 15 0 27 -17 34 -26
10z"/>
<path d="M1004 595 c-8 -19 2 -45 16 -45 5 0 10 14 10 30 0 31 -16 41 -26 15z"/>
<path d="M1182 538 c2 -40 8 -73 13 -73 6 0 11 33 13 73 2 60 0 72 -13 72 -13
0 -15 -12 -13 -72z"/>
</g>
</svg>
